<?xml version="1.0" encoding="utf-8"?>
<!-- Generator: Adobe Illustrator 19.2.1, SVG Export Plug-In . SVG Version: 6.00 Build 0)  -->
<!DOCTYPE svg PUBLIC "-//W3C//DTD SVG 1.1//EN" "http://www.w3.org/Graphics/SVG/1.1/DTD/svg11.dtd">
<svg version="1.1" id="Layer_1" xmlns="http://www.w3.org/2000/svg" xmlns:xlink="http://www.w3.org/1999/xlink" x="0px" y="0px"
	 viewBox="0 0 561 560" style="enable-background:new 0 0 561 560;" xml:space="preserve">
<g>
	<path d="M489.4,115.4L319.1,17c-23.7-13.7-52.8-13.7-76.3,0L72.6,115.4c-23.7,13.7-38.3,38.9-38.3,66.1v196.7
		c0,27.2,14.6,52.5,38.3,66.1L242.9,543c23.7,13.7,52.8,13.7,76.3,0l170.3-98.4c23.7-13.7,38.3-38.9,38.3-66.1V181.6
		C527.7,154.2,513.1,128.9,489.4,115.4z M338.7,356.2l-27.4-57.6v-21.8H324c7.6,0,11.8-5.1,11.8-9.2c-0.2-7.2-6.5-11.1-12.9-11.1
		h-16.2v99.6h-57.1l-39.8-63.8h-3.4l11.8,20.9v43h-56V203.7h54.5l42.6,65.4h3.3l-11.8-19.3v-46.1H307h0.2h5.8
		c61.2,0,80.6,27.4,80,59.6c-0.2,16-7.5,32.4-24.6,38l30,54.9L338.7,356.2L338.7,356.2z"/>
</g>
</svg>
