<?xml version="1.0" encoding="utf-8"?>
<!-- Generator: Adobe Illustrator 19.2.1, SVG Export Plug-In . SVG Version: 6.00 Build 0)  -->
<!DOCTYPE svg PUBLIC "-//W3C//DTD SVG 1.1//EN" "http://www.w3.org/Graphics/SVG/1.1/DTD/svg11.dtd">
<svg version="1.1" id="Layer_1" xmlns="http://www.w3.org/2000/svg" xmlns:xlink="http://www.w3.org/1999/xlink" x="0px" y="0px"
	 viewBox="0 0 561 560" style="enable-background:new 0 0 561 560;" xml:space="preserve">
<style type="text/css">
	.st0{fill:none;stroke:#FFFFFF;stroke-width:2;stroke-miterlimit:10;}
	.st1{fill:#FFFFFF;}
</style>
<g>
	<path class="st0" d="M414.9,210.3l-109.4-63.2c-15.2-8.8-33.9-8.8-49,0l-109.4,63.2c-15.2,8.8-24.6,25-24.6,42.5v126.4
		c0,17.5,9.4,33.7,24.6,42.5L256.5,485c15.2,8.8,33.9,8.8,49,0l109.4-63.2c15.2-8.8,24.6-25,24.6-42.5V252.8
		C439.5,235.2,430.1,219,414.9,210.3z"/>
</g>
<g>
	<path class="st1" d="M318.1,365l-17.6-37v-14h8.1c4.9,0,7.6-3.3,7.6-5.9c-0.1-4.6-4.2-7.1-8.3-7.1h-10.4v64h-36.7l-25.6-41H233
		l7.6,13.4V365h-36v-98h35l27.4,42h2.1l-7.6-12.4V267h36.2h0.1h3.7c39.3,0,51.8,17.6,51.4,38.3c-0.1,10.3-4.8,20.8-15.8,24.4
		l19.3,35.3L318.1,365L318.1,365z"/>
</g>
</svg>
